<svg width="288" height="288" viewBox="0 0 288 288" fill="none" xmlns="http://www.w3.org/2000/svg">
<g clip-path="url(#clip0_1_3)">
<path d="M69.18 121C65.8 121 61.8 124.25 58.5 129.7C55.05 135.36 53 142.35 53 148.43C53 157.33 57.99 166.3 69.18 166.3C80.37 166.3 85.36 157.33 85.36 148.43C85.36 142.35 83.31 135.36 79.88 129.71C76.54 124.25 72.54 121 69.18 121Z" fill="#E30611"/>
<path d="M156.53 134.35H167.85V163.87H179.99V134.35H191.31V123.43H156.53V134.35Z" fill="#E30611"/>
<path d="M217.19 134.35H234.99V123.43H217.2C200.85 123.43 192.12 131.56 192.12 143.65C192.12 155.74 200.85 163.87 217.2 163.87H234.99V152.95H217.19C209.63 152.95 204.65 150.25 204.65 143.65C204.65 137.05 209.63 134.35 217.19 134.35Z" fill="#E30611"/>
<path d="M131.85 123.43L125.39 147.57L118.92 123.43H97.49V163.87H109.62V130.97L118.43 163.87H132.34L141.16 130.95V163.87H153.29V123.43H131.85Z" fill="#E30611"/>
</g>
<defs>
<clipPath id="clip0_1_3">
<rect width="181.99" height="45.29" fill="white" transform="translate(53 121)"/>
</clipPath>
</defs>
</svg>
