<?xml version="1.0" standalone="no"?>
<!DOCTYPE svg PUBLIC "-//W3C//DTD SVG 20010904//EN"
 "http://www.w3.org/TR/2001/REC-SVG-20010904/DTD/svg10.dtd">
<svg version="1.0" xmlns="http://www.w3.org/2000/svg"
 width="96.000000pt" height="96.000000pt" viewBox="0 0 96.000000 96.000000"
 preserveAspectRatio="xMidYMid meet">

<g transform="translate(0.000000,96.000000) scale(0.100000,-0.100000)"
fill="#000000" stroke="none">
<path d="M372 792 c-141 -51 -231 -190 -220 -337 10 -117 80 -220 187 -272 48
-24 68 -28 141 -28 73 0 93 4 141 28 66 32 132 99 162 165 16 36 21 67 22 132
0 73 -4 93 -28 141 -32 67 -100 132 -165 162 -66 29 -172 33 -240 9z m240 -79
c92 -51 146 -155 135 -261 -15 -145 -149 -254 -295 -239 -145 15 -254 149
-239 295 11 102 92 201 191 232 57 17 150 5 208 -27z"/>
<path d="M450 646 c0 -8 -13 -28 -30 -44 -54 -54 -27 -135 50 -151 29 -6 35
-11 35 -31 0 -30 -41 -42 -51 -16 -4 10 -18 16 -35 16 -38 0 -38 -23 1 -62 17
-16 30 -36 30 -44 0 -9 11 -14 30 -14 19 0 30 5 30 14 0 8 14 28 30 44 54 54
27 135 -50 151 -29 6 -35 11 -35 31 0 30 41 42 51 16 4 -10 18 -16 35 -16 38
0 38 23 -1 62 -16 16 -30 36 -30 44 0 9 -11 14 -30 14 -19 0 -30 -5 -30 -14z"/>
</g>
</svg>
