<?xml version="1.0" encoding="UTF-8"?>
<svg id="_Слой_2" data-name="Слой 2" xmlns="http://www.w3.org/2000/svg" viewBox="0 0 51.27 42.68">
  <defs>
    <style>
      .cls-1 {
        fill: #fab542;
        stroke-width: 0px;
      }
    </style>
  </defs>
  <g id="_Слой_2-2" data-name="Слой 2">
    <g>
      <g>
        <path class="cls-1" d="m5.84,28.88h4.02v13.8h-4.02v-10.56l-3.74,2.24v-3.3l3.74-2.18Z"/>
        <path class="cls-1" d="m11.38,28.88h4.76l5.26,5.72,4.86-5.72h4.2l-7.22,8.4v5.4h-4v-5.4l-7.86-8.4Z"/>
        <path class="cls-1" d="m43.58,28.88c1.65,0,2.92.38,3.81,1.14s1.33,1.87,1.33,3.32c0,1.13-.26,2.06-.77,2.77-.51.71-1.25,1.22-2.21,1.53l3.42,5.04h-4.54l-3.2-4.72h-5.44v4.72h-4v-13.8h11.6Zm1.1,4.34c0-.48-.14-.86-.41-1.13s-.78-.41-1.51-.41h-6.78v3.42h6.78c.72,0,1.22-.14,1.5-.42s.42-.66.42-1.14v-.32Z"/>
      </g>
      <g>
        <path class="cls-1" d="m29.39,8.07l-1.27,12.84s.03-.08.03-.12l1.26-12.74-.02.02Z"/>
        <path class="cls-1" d="m49.97,1.03c-.26,0-.52.08-.76.25l-8.68,6.29L34.94.43c-.37-.47-1.06-.57-1.55-.21l-10.14,7.35L18.01.9c-.25-.33-.64-.5-1.02-.5s-.76.17-1.02.5l-5.23,6.67L2.06,1.28c-.24-.17-.5-.24-.75-.24C.59,1.04-.07,1.64,0,2.46l1.84,18.72c.23,2.3,2.17,4.06,4.48,4.06h38.62c2.32,0,4.25-1.76,4.48-4.06l1.84-18.72c.08-.82-.58-1.43-1.3-1.43ZM6.33,21.24c-.26,0-.47-.19-.49-.45l-1.26-12.74,3.82,2.76c.7.52,1.53.76,2.34.76,1.19,0,2.36-.52,3.15-1.53l3.1-3.96,3.11,3.96c.78,1.01,1.96,1.53,3.15,1.53.81,0,1.64-.24,2.34-.76l3.8-2.74-1.27,12.84c-.06.2-.25.33-.46.33H6.33Zm39.11-.46c-.02.26-.24.46-.49.46h-12.84l1.5-16.03,3.78,4.83c.78,1,1.96,1.53,3.15,1.53.81,0,1.63-.25,2.34-.76l3.82-2.77-1.26,12.74Z"/>
      </g>
    </g>
  </g>
</svg>