<?xml version="1.0" encoding="UTF-8"?>
<svg id="_Слой_2" data-name="Слой 2" xmlns="http://www.w3.org/2000/svg" viewBox="0 0 53.84 42.96">
  <defs>
    <style>
      .cls-1 {
        fill: #fab542;
        stroke-width: 0px;
      }
    </style>
  </defs>
  <g id="_Слой_2-2" data-name="Слой 2">
    <g>
      <g>
        <path class="cls-1" d="m3.74,28.88h4.02v13.8H3.74v-10.56l-3.74,2.24v-3.3l3.74-2.18Z"/>
        <path class="cls-1" d="m14.52,32.18v10.5h-3.64v-13.8h6.2l4.16,10.32,4.16-10.32h6.16v13.8h-4v-10.62l-4.3,10.62h-4.46l-4.28-10.5Z"/>
        <path class="cls-1" d="m33.9,35.74c0-1.35.22-2.48.66-3.39.44-.91,1.08-1.65,1.93-2.2.85-.55,1.89-.95,3.13-1.19,1.24-.24,2.66-.36,4.26-.36s3.02.12,4.26.36,2.28.64,3.13,1.19c.85.55,1.49,1.29,1.92,2.2.43.91.65,2.04.65,3.39s-.22,2.5-.65,3.43-1.07,1.67-1.92,2.23c-.85.56-1.89.96-3.13,1.2-1.24.24-2.66.36-4.26.36s-3.02-.12-4.26-.36c-1.24-.24-2.28-.64-3.13-1.2-.85-.56-1.49-1.3-1.93-2.23s-.66-2.07-.66-3.43Zm15.9-.56c0-1.33-.5-2.25-1.49-2.78s-2.47-.79-4.43-.79-3.46.26-4.45.79-1.49,1.46-1.49,2.78v1.15c0,.71.12,1.3.37,1.77.25.47.62.84,1.12,1.12.5.28,1.12.47,1.86.58.74.11,1.6.17,2.59.17s1.83-.06,2.57-.17c.74-.11,1.36-.31,1.86-.58.5-.27.87-.65,1.12-1.12.25-.47.37-1.06.37-1.77v-1.15Z"/>
      </g>
      <path class="cls-1" d="m27.03,5.68l3.1,3.96c.79,1,1.96,1.53,3.15,1.53.81,0,1.64-.25,2.34-.76l3.81-2.76-1.25,12.74c-.03.26-.24.45-.5.45h-21.33c-.26,0-.47-.19-.5-.45l-1.25-12.74,3.81,2.76c.71.51,1.53.76,2.34.76,1.19,0,2.36-.53,3.15-1.53l3.1-3.96m0-5.68c-.38,0-.76.17-1.02.5l-5.23,6.68L12.1.88c-.24-.17-.5-.25-.76-.25-.72,0-1.38.61-1.29,1.43l1.84,18.72c.23,2.3,2.16,4.06,4.48,4.06h21.33c2.31,0,4.25-1.76,4.48-4.06l1.84-18.72c.08-.82-.58-1.43-1.29-1.43-.26,0-.52.08-.76.25l-8.68,6.29L28.05.5c-.26-.33-.64-.5-1.02-.5h0Z"/>
    </g>
  </g>
</svg>