<svg id="mail_white_" data-name="mail (white)" xmlns="http://www.w3.org/2000/svg" width="19.188" height="13.472" viewBox="0 0 19.188 13.472">
  <path id="mail" d="M81.439,269.472a1.48,1.48,0,0,1-1.007-.379,1.146,1.146,0,0,1-.432-.884V257.263a1.146,1.146,0,0,1,.432-.884A1.48,1.48,0,0,1,81.439,256h16.31a1.48,1.48,0,0,1,1.007.379,1.146,1.146,0,0,1,.432.884v10.946a1.146,1.146,0,0,1-.432.884,1.48,1.48,0,0,1-1.007.379Zm8.155-6.357,8.155-4.694v-1.158l-8.155,4.589-8.155-4.589v1.158Z" transform="translate(-80 -256)" fill="#fff"/>
</svg>
