<?xml version="1.0" encoding="UTF-8"?>
<svg id="_Слой_2" data-name="Слой 2" xmlns="http://www.w3.org/2000/svg" viewBox="0 0 220 80.88">
  <defs>
    <style>
      .cls-1 {
        fill: #e30611;
      }

      .cls-1, .cls-2 {
        stroke-width: 0px;
      }

      .cls-2 {
        fill: #fff;
      }
    </style>
  </defs>
  <g id="_Слой_2-2" data-name="Слой 2">
    <rect class="cls-1" width="220" height="80.88"/>
    <g>
      <path class="cls-2" d="m33.97,17.79c-3.38,0-7.38,3.25-10.68,8.7-3.44,5.65-5.49,12.65-5.49,18.72,0,8.9,4.99,17.87,16.18,17.87s16.18-8.97,16.18-17.87c0-6.08-2.05-13.07-5.48-18.72-3.33-5.46-7.33-8.7-10.7-8.7Z"/>
      <polygon class="cls-2" points="121.32 31.14 132.65 31.14 132.65 60.66 144.78 60.66 144.78 31.14 156.1 31.14 156.1 20.22 121.32 20.22 121.32 31.14"/>
      <path class="cls-2" d="m181.98,31.14h17.8v-10.92h-17.79c-16.35,0-25.08,8.13-25.08,20.22s8.73,20.22,25.08,20.22h17.79v-10.92h-17.8c-7.56,0-12.54-2.7-12.54-9.3s4.98-9.3,12.54-9.3Z"/>
      <polygon class="cls-2" points="96.65 20.22 90.18 44.36 83.71 20.22 62.28 20.22 62.28 60.66 74.41 60.66 74.41 27.77 83.23 60.66 97.14 60.66 105.96 27.75 105.96 60.66 118.09 60.66 118.09 20.22 96.65 20.22"/>
    </g>
  </g>
</svg>