<?xml version="1.0" encoding="UTF-8"?>
<svg id="_Слой_2" data-name="Слой 2" xmlns="http://www.w3.org/2000/svg" viewBox="0 0 181.99 45.29">
  <defs>
    <style>
      .cls-1 {
        fill: #e30611;
        stroke-width: 0px;
      }
    </style>
  </defs>
  <g id="_Слой_2-2" data-name="Слой 2">
    <g>
      <path class="cls-1" d="m16.18,0c-3.38,0-7.38,3.25-10.68,8.7C2.05,14.36,0,21.35,0,27.43c0,8.9,4.99,17.87,16.18,17.87s16.18-8.97,16.18-17.87c0-6.08-2.05-13.07-5.48-18.72C23.54,3.25,19.54,0,16.18,0Z"/>
      <polygon class="cls-1" points="103.53 13.35 114.85 13.35 114.85 42.87 126.99 42.87 126.99 13.35 138.31 13.35 138.31 2.43 103.53 2.43 103.53 13.35"/>
      <path class="cls-1" d="m164.19,13.35h17.8V2.43h-17.79c-16.35,0-25.08,8.13-25.08,20.22s8.73,20.22,25.08,20.22h17.79v-10.92h-17.8c-7.56,0-12.54-2.7-12.54-9.3s4.98-9.3,12.54-9.3Z"/>
      <polygon class="cls-1" points="78.85 2.43 72.39 26.57 65.92 2.43 44.49 2.43 44.49 42.87 56.62 42.87 56.62 9.97 65.43 42.87 79.34 42.87 88.16 9.95 88.16 42.87 100.29 42.87 100.29 2.43 78.85 2.43"/>
    </g>
  </g>
</svg>