<svg xmlns="http://www.w3.org/2000/svg"  viewBox="0 0 50 50" width="100px" height="100px"><path d="M 6 5.5253906 L 6 18.248047 L 6 18.25 L 8.5703125 18.25 L 8.5703125 13.449219 L 10.244141 13.449219 C 11.407141 13.449219 12.296156 13.388578 12.910156 13.267578 C 13.361156 13.169578 13.805188 12.968063 14.242188 12.664062 C 14.678187 12.361062 15.039266 11.943156 15.322266 11.410156 C 15.606266 10.877156 15.748047 10.221453 15.748047 9.4394531 C 15.748047 8.4274531 15.501766 7.6028906 15.009766 6.9628906 C 14.517766 6.3228906 13.907687 5.9077969 13.179688 5.7167969 C 12.704687 5.5897969 11.685047 5.5253906 10.123047 5.5253906 L 6 5.5253906 z M 8.5703125 7.6777344 L 9.8105469 7.6777344 C 10.735547 7.6777344 11.352156 7.7056719 11.660156 7.7636719 C 12.076156 7.8386719 12.419406 8.028125 12.691406 8.328125 C 12.964406 8.629125 13.099609 9.0116094 13.099609 9.4746094 C 13.099609 9.8506094 13.003547 10.179891 12.810547 10.462891 C 12.616547 10.746891 12.349813 10.954891 12.007812 11.087891 C 11.665813 11.221891 10.989562 11.287109 9.9765625 11.287109 L 8.5703125 11.287109 L 8.5703125 7.6777344 z M 22.023438 8.8222656 C 21.120438 8.8222656 20.303313 9.022875 19.570312 9.421875 C 18.838313 9.820875 18.273047 10.400203 17.873047 11.158203 C 17.474047 11.916203 17.275391 12.699766 17.275391 13.509766 C 17.275391 14.568766 17.475 15.466078 17.875 16.205078 C 18.275 16.942078 18.857 17.502766 19.625 17.884766 C 20.391 18.266766 21.196016 18.457031 22.041016 18.457031 C 23.407016 18.457031 24.539453 18.000031 25.439453 17.082031 C 26.339453 16.164031 26.789062 15.008281 26.789062 13.613281 C 26.789062 12.231281 26.342172 11.087641 25.451172 10.181641 C 24.560172 9.2756406 23.417437 8.8222656 22.023438 8.8222656 z M 32.960938 8.8222656 C 32.566937 8.8222656 32.21525 8.9201875 31.90625 9.1171875 C 31.59625 9.3141875 31.247375 9.7227969 30.859375 10.341797 L 30.859375 9.03125 L 28.59375 9.03125 L 28.59375 18.248047 L 31.03125 18.248047 L 31.03125 15.400391 C 31.03125 13.832391 31.100328 12.802547 31.236328 12.310547 C 31.372328 11.818547 31.559875 11.479016 31.796875 11.291016 C 32.034875 11.103016 32.322063 11.009766 32.664062 11.009766 C 33.017062 11.009766 33.399547 11.142203 33.810547 11.408203 L 34.566406 9.28125 C 34.051406 8.97525 33.515937 8.8222656 32.960938 8.8222656 z M 40.902344 8.8222656 C 39.681344 8.8222656 38.668281 9.3437656 37.863281 10.384766 L 37.863281 9.03125 L 35.599609 9.03125 L 35.599609 18.248047 L 38.037109 18.248047 L 38.037109 14.074219 C 38.037109 13.044219 38.100609 12.337078 38.224609 11.955078 C 38.348609 11.573078 38.579062 11.267156 38.914062 11.035156 C 39.250063 10.804156 39.629734 10.689453 40.052734 10.689453 C 40.382734 10.689453 40.664437 10.769641 40.898438 10.931641 C 41.133437 11.093641 41.301297 11.321281 41.404297 11.613281 C 41.508297 11.906281 41.5625 12.549922 41.5625 13.544922 L 41.5625 18.248047 L 44 18.248047 L 44 12.521484 C 44 11.809484 43.955187 11.262859 43.867188 10.880859 C 43.777188 10.499859 43.617672 10.156469 43.388672 9.8554688 C 43.159672 9.5544687 42.822953 9.3072813 42.376953 9.1132812 C 41.931953 8.9192812 41.440344 8.8222656 40.902344 8.8222656 z M 22.03125 10.810547 C 22.66825 10.810547 23.201812 11.053062 23.632812 11.539062 C 24.064813 12.025063 24.279297 12.719094 24.279297 13.621094 C 24.279297 14.547094 24.064812 15.254234 23.632812 15.740234 C 23.202812 16.226234 22.66825 16.46875 22.03125 16.46875 C 21.39525 16.46875 20.859781 16.227234 20.425781 15.740234 C 19.990781 15.254234 19.775391 14.554625 19.775391 13.640625 C 19.775391 12.726625 19.990781 12.026062 20.425781 11.539062 C 20.859781 11.053063 21.39525 10.810547 22.03125 10.810547 z M 7.1210938 21 C 5.9613088 21 5 21.961309 5 23.121094 L 5 42.878906 C 5 44.038691 5.9613088 45 7.1210938 45 L 42.878906 45 C 44.038691 45 45 44.036869 45 42.876953 L 45 23.121094 C 45 21.961309 44.036869 21 42.876953 21 L 7.1210938 21 z M 7.1210938 23 L 42.876953 23 C 42.959037 23 43 23.040879 43 23.121094 L 43 42.876953 C 43 42.959037 42.959121 43 42.878906 43 L 7.1210938 43 C 7.0408787 43 7 42.959121 7 42.878906 L 7 23.121094 C 7 23.040879 7.0408786 23 7.1210938 23 z M 12.126953 26.597656 L 12.126953 37.908203 L 14.294922 37.908203 L 14.294922 33.804688 C 14.294922 33.115688 14.360188 32.594187 14.492188 32.242188 C 14.623188 31.889188 14.830281 31.626172 15.113281 31.451172 C 15.396281 31.276172 15.718125 31.1875 16.078125 31.1875 C 16.391125 31.1875 16.652328 31.256578 16.861328 31.392578 C 17.069328 31.528578 17.214875 31.714312 17.296875 31.945312 C 17.378875 32.176312 17.421875 32.721078 17.421875 33.580078 L 17.421875 37.910156 L 19.589844 37.910156 L 19.589844 33.101562 C 19.589844 32.366563 19.552516 31.824609 19.478516 31.474609 C 19.403516 31.124609 19.263547 30.805578 19.060547 30.517578 C 18.857547 30.229578 18.555297 29.992641 18.154297 29.806641 C 17.752297 29.621641 17.301734 29.529297 16.802734 29.529297 C 15.830734 29.529297 14.994922 29.937859 14.294922 30.755859 L 14.294922 26.597656 L 12.126953 26.597656 z M 31.349609 26.597656 L 31.349609 37.908203 L 33.363281 37.908203 L 33.363281 36.705078 C 33.692281 37.163078 34.084063 37.508187 34.539062 37.742188 C 34.995062 37.976188 35.456781 38.09375 35.925781 38.09375 C 36.876781 38.09375 37.687516 37.716938 38.353516 36.960938 C 39.019516 36.204937 39.351562 35.125563 39.351562 33.726562 C 39.351562 32.373563 39.027047 31.335281 38.373047 30.613281 C 37.719047 29.891281 36.892531 29.529297 35.894531 29.529297 C 34.978531 29.529297 34.186578 29.910875 33.517578 30.671875 L 33.517578 26.597656 L 31.349609 26.597656 z M 21.742188 29.714844 L 21.742188 34.900391 C 21.742187 35.671391 21.841109 36.275891 22.037109 36.712891 C 22.232109 37.150891 22.547375 37.490422 22.984375 37.732422 C 23.421375 37.974422 23.915797 38.095703 24.466797 38.095703 C 25.006797 38.095703 25.518859 37.968797 26.005859 37.716797 C 26.492859 37.464797 26.885594 37.121594 27.183594 36.683594 L 27.183594 37.910156 L 29.199219 37.910156 L 29.199219 29.714844 L 27.029297 29.714844 L 27.029297 33.171875 C 27.029297 34.344875 26.975188 35.081812 26.867188 35.382812 C 26.759187 35.682812 26.558625 35.935672 26.265625 36.138672 C 25.972625 36.341672 25.641484 36.443359 25.271484 36.443359 C 24.947484 36.443359 24.67975 36.368797 24.46875 36.216797 C 24.25775 36.064797 24.11125 35.859609 24.03125 35.599609 C 23.95125 35.339609 23.912109 34.633469 23.912109 33.480469 L 23.912109 29.714844 L 21.742188 29.714844 z M 35.316406 31.1875 C 35.846406 31.1875 36.279141 31.394594 36.619141 31.808594 C 36.959141 32.222594 37.130859 32.897984 37.130859 33.833984 C 37.130859 34.713984 36.960047 35.358578 36.623047 35.767578 C 36.286047 36.176578 35.879391 36.380859 35.400391 36.380859 C 34.778391 36.380859 34.278344 36.093578 33.902344 35.517578 C 33.635344 35.111578 33.503906 34.483766 33.503906 33.634766 C 33.503906 32.812766 33.674531 32.196969 34.019531 31.792969 C 34.364531 31.388969 34.795406 31.1875 35.316406 31.1875 z"/></svg>