<?xml version="1.0" encoding="UTF-8"?>
<svg id="_Слой_2" data-name="Слой 2" xmlns="http://www.w3.org/2000/svg" viewBox="0 0 12.14 29.74">
  <defs>
    <style>
      .cls-1 {
        fill: #e30611;
      }

      .cls-1, .cls-2 {
        stroke-width: 0px;
      }

      .cls-2 {
        fill: #fff;
      }
    </style>
  </defs>
  <g id="_Слой_2-2" data-name="Слой 2">
    <g>
      <path class="cls-1" d="m6.07,28.64c-1.45,0-2.6-.34-3.43-1-.89-.72-1.34-1.83-1.34-3.3s.46-2.58,1.36-3.29c.82-.65,1.97-.97,3.42-.97s2.6.33,3.42.97c.9.71,1.35,1.82,1.35,3.29s-.45,2.58-1.34,3.3c-.82.66-1.98,1-3.43,1Zm-3.58-9L1.18,1.1h9.78l-1.31,18.54H2.49Z"/>
      <path class="cls-2" d="m9.78,2.2l-1.15,16.34H3.51L2.36,2.2h7.42m-3.71,18.97c1.2,0,2.11.25,2.74.74s.94,1.3.94,2.43-.31,1.94-.94,2.45-1.54.76-2.74.76-2.11-.25-2.74-.76c-.62-.5-.94-1.32-.94-2.45s.31-1.94.94-2.43c.62-.49,1.54-.74,2.74-.74M12.14,0H0l.17,2.35,1.15,16.34.14,1.96c-.65.72-1.26,1.87-1.26,3.68,0,2.27.95,3.52,1.76,4.16,1.02.82,2.41,1.24,4.12,1.24s3.1-.42,4.12-1.24c.8-.65,1.75-1.89,1.75-4.16,0-1.81-.61-2.96-1.26-3.68l.14-1.96,1.15-16.34.17-2.35h0Z"/>
    </g>
  </g>
</svg>