<?xml version="1.0" encoding="UTF-8"?>
<svg id="_Слой_2" data-name="Слой 2" xmlns="http://www.w3.org/2000/svg" viewBox="0 0 208 208">
  <defs>
    <style>
      .cls-1 {
        opacity: .7;
      }

      .cls-2 {
        fill: #e30611;
      }

      .cls-2, .cls-3 {
        stroke-width: 0px;
      }

      .cls-3 {
        fill: #fff;
      }
    </style>
  </defs>
  <g id="_Слой_2-2" data-name="Слой 2">
    <rect class="cls-2" x="0" y="0" width="208" height="208" rx="104" ry="104"/>
    <g class="cls-1">
      <path class="cls-3" d="m104,171.08c-33.91,0-49.09-27.05-49.09-53.87,0-17.57,5.91-37.79,15.8-54.08,10.05-16.66,22.19-26.21,33.29-26.21s23.2,9.55,33.34,26.21c9.87,16.32,15.75,36.54,15.75,54.08,0,14.07-4.16,27.09-11.71,36.69-8.85,11.24-21.78,17.18-37.38,17.18Zm0-125.16c-7.64,0-17.45,8.38-25.59,21.88-9.08,14.95-14.5,33.42-14.5,49.42,0,20.7,10.5,44.87,40.09,44.87,27.69,0,40.09-22.54,40.09-44.87,0-15.97-5.4-34.45-14.45-49.41-8.21-13.49-18.04-21.88-25.64-21.88Z"/>
    </g>
    <g>
      <path class="cls-3" d="m45.66,75.67v20.94h37.28v-20.94h16.42v56.66h-16.42v-22.66h-37.28v22.66h-16.42v-56.66h16.42Z"/>
      <path class="cls-3" d="m159.46,75.67c6.79,0,12,1.56,15.64,4.68,3.64,3.12,5.46,7.67,5.46,13.63,0,4.65-1.05,8.44-3.16,11.37-2.11,2.93-5.13,5.02-9.07,6.28l14.04,20.69h-18.64l-13.14-19.38h-22.33v19.38h-16.42v-56.66h47.62Zm4.52,17.82c0-1.97-.56-3.52-1.68-4.64-1.12-1.12-3.19-1.68-6.2-1.68h-27.83v14.04h27.83c2.96,0,5.01-.58,6.16-1.72s1.72-2.71,1.72-4.68v-1.31Z"/>
    </g>
  </g>
</svg>